<?xml version="1.0" encoding="UTF-8" standalone="no"?> <!-- Created with Vectornator for iOS (http://vectornator.io/) --><!DOCTYPE svg PUBLIC "-//W3C//DTD SVG 1.1//EN" "http://www.w3.org/Graphics/SVG/1.1/DTD/svg11.dtd">
<svg style="fill-rule:evenodd;clip-rule:evenodd;stroke-linecap:round;stroke-linejoin:round;" xmlns:vectornator="http://vectornator.io" xmlns:xlink="http://www.w3.org/1999/xlink" xmlns="http://www.w3.org/2000/svg" xml:space="preserve" version="1.1" viewBox="0 0 1543.25 788.55">
<metadata>
  <vectornator:setting key="DynamicGuides" value="1"/>
  <vectornator:setting key="Units" value="Points"/>
  <vectornator:setting key="GridSpacing" value="36"/>
  <vectornator:setting key="SnapToGuides" value="1"/>
  <vectornator:setting key="RulersVisible" value="1"/>
</metadata>
  <defs/>
  <g id="Слой 2" vectornator:layerName="Слой 2">
<g opacity="1">
<path d="M930.752+570.143L924.67+570.143C925.971+577.175+932.053+581.956+940.456+581.956C950.862+581.956+957.823+574.573+957.823+562.655C957.823+551.018+950.897+543.354+940.526+543.354C931.491+543.354+925.831+548.979+924.741+555.307L930.823+555.307C931.842+551.616+935.147+548.803+940.491+548.803C946.186+548.803+950.51+552.882+951.354+559.386L934.163+559.386L934.163+564.448L951.53+564.448C951.108+572.007+946.573+576.507+940.42+576.507C935.393+576.507+931.983+574.292+930.752+570.143Z" fill-rule="evenodd" fill="#ff6d1b" opacity="1"/>
  <path d="M977.44+561.671L995.264+543.706L987.67+543.706L971.288+560.546L971.006+560.546L971.006+543.706L964.96+543.706L964.96+581.604L971.006+581.604L971.006+563.288L971.288+563.288L987.846+581.604L995.756+581.604L977.44+561.671Z" fill-rule="evenodd" fill="#ff6d1b" opacity="1"/>
  <path d="M1016.74+581.956C1027.4+581.956+1034.22+574.397+1034.22+562.655C1034.22+550.878+1027.4+543.354+1016.74+543.354C1006.09+543.354+999.272+550.878+999.272+562.655C999.272+574.397+1006.09+581.956+1016.74+581.956ZM1016.74+576.507C1009.71+576.507+1005.49+571.339+1005.49+562.655C1005.49+553.971+1009.68+548.803+1016.74+548.803C1023.81+548.803+1027.99+553.936+1027.99+562.655C1027.99+571.339+1023.81+576.507+1016.74+576.507Z" fill-rule="evenodd" fill="#ff6d1b" opacity="1"/>
  <path d="M1072.57+555.307C1071.48+548.944+1065.82+543.354+1056.79+543.354C1046.42+543.354+1039.49+551.018+1039.49+562.655C1039.49+574.573+1046.45+581.956+1056.86+581.956C1065.26+581.956+1071.38+577.139+1072.64+570.108L1066.56+570.108C1065.33+574.257+1061.92+576.507+1056.89+576.507C1050.28+576.507+1045.71+571.268+1045.71+562.655C1045.71+554.288+1050.21+548.803+1056.82+548.803C1062.17+548.803+1065.47+551.616+1066.49+555.307L1072.57+555.307Z" fill-rule="evenodd" fill="#ff6d1b" opacity="1"/>
  <path d="M1085.3+581.604L1104.46+553.163L1104.74+553.163L1104.74+581.604L1110.79+581.604L1110.79+543.706L1104.74+543.706L1085.58+572.147L1085.3+572.147L1085.3+543.706L1079.25+543.706L1079.25+581.604L1085.3+581.604Z" fill-rule="evenodd" fill="#ff6d1b" opacity="1"/>
  <path d="M1151.01+555.307C1149.92+548.944+1144.26+543.354+1135.22+543.354C1124.85+543.354+1117.92+551.018+1117.92+562.655C1117.92+574.573+1124.89+581.956+1135.29+581.956C1143.69+581.956+1149.81+577.139+1151.08+570.108L1144.99+570.108C1143.76+574.257+1140.35+576.507+1135.33+576.507C1128.72+576.507+1124.15+571.268+1124.15+562.655C1124.15+554.288+1128.65+548.803+1135.26+548.803C1140.6+548.803+1143.9+551.616+1144.92+555.307L1151.01+555.307Z" fill-rule="evenodd" fill="#ff6d1b" opacity="1"/>
  <path d="M1185.25+543.706L1154.59+543.706L1154.59+548.768L1166.9+548.768L1166.9+581.604L1172.94+581.604L1172.94+548.768L1185.25+548.768L1185.25+543.706Z" fill-rule="evenodd" fill="#ff6d1b" opacity="1"/>
  <path d="M1206.27+548.733C1212.25+548.733+1216.33+553.022+1216.47+559.456L1195.62+559.456C1196.04+553.057+1200.33+548.733+1206.27+548.733ZM1216.33+570.776C1215.24+574.327+1211.55+576.577+1206.8+576.577C1200.05+576.577+1195.62+571.901+1195.62+564.694L1195.62+564.343L1222.83+564.343L1222.83+561.952C1222.83+550.491+1216.5+543.354+1206.38+543.354C1196.04+543.354+1189.29+551.053+1189.29+562.796C1189.29+574.538+1196.01+581.956+1206.66+581.956C1214.74+581.956+1221.32+577.28+1222.37+570.776L1216.33+570.776Z" fill-rule="evenodd" fill="#ff6d1b" opacity="1"/>
  <path d="M1236.01+581.604L1236.01+554.639L1236.3+554.639L1248.67+580.55L1253.38+580.55L1265.76+554.639L1266.04+554.639L1266.04+581.604L1272.12+581.604L1272.12+543.706L1265.05+543.706L1251.31+573.483L1251.03+573.483L1237.31+543.706L1229.97+543.706L1229.97+581.604L1236.01+581.604Z" fill-rule="evenodd" fill="#ff6d1b" opacity="1"/>
  <path d="M1293.49+576.647C1288.71+576.647+1285.65+574.362+1285.65+570.846C1285.65+567.19+1288.61+565.116+1294.3+564.764L1304.22+564.132L1304.22+567.19C1304.22+572.639+1299.68+576.647+1293.49+576.647ZM1292.19+581.956C1297.5+581.956+1302.25+579.249+1304.39+575.03L1304.53+575.03L1304.53+581.604L1310.33+581.604L1310.33+555.589C1310.33+548.136+1304.57+543.354+1295.6+543.354C1287.66+543.354+1281.44+548.241+1281.26+554.639L1287.13+554.639C1287.87+551.053+1291.14+548.803+1295.53+548.803C1301.12+548.803+1304.22+551.405+1304.22+556.116L1304.22+559.28L1293.6+559.913C1284.39+560.475+1279.4+564.307+1279.4+570.811C1279.4+577.526+1284.49+581.956+1292.19+581.956Z" fill-rule="evenodd" fill="#ff6d1b" opacity="1"/>
</g>
</g>
  <g id="Untitled" vectornator:layerName="Untitled">
<path d="M456.41+500.13C456.41+509.838+456.829+520.862+456.358+530.063C455.98+537.463+458.632+542.868+464.028+547.737C472.675+555.539+480.931+563.776+489.281+571.903C503.74+585.976+518.138+600.112+532.574+614.208C545.36+626.693+558.084+639.242+571.021+651.568C573.911+654.321+573.89+656.288+570.788+658.314C565.742+661.611+560.638+664.828+555.466+667.923C543.614+675.017+531.775+682.136+519.802+689.022C506.698+696.558+493.416+703.783+480.272+711.25C462.163+721.537+444.077+731.865+426.046+742.289C414.22+749.125+402.518+756.175+390.74+763.096C387.904+764.762+378.324+769.487+378.324+769.487C378.324+769.487+376.3+768.34+374.081+767.216C367.268+763.765+360.795+759.643+354.19+755.782C343.181+749.347+332.239+742.794+321.147+736.507C308.004+729.058+294.619+722.031+281.542+714.469C264.774+704.772+248.248+694.656+231.528+684.873C226.907+682.169+221.866+680.187+217.202+677.549C210.923+673.998+204.865+670.061+198.637+666.417C188.416+660.435+178.121+654.58+167.882+648.629C157.376+642.522+146.93+636.311+136.403+630.242C125.243+623.808+114.005+617.509+102.825+611.111C89.9465+603.742+77.1239+596.276+64.2133+588.964C59.6748+586.394+54.961+584.131+50.3017+581.778C47.0072+580.114+45.1215+578.973+45.1215+578.973C45.1215+578.973+45.2585+542.598+45.2585+526.993C45.2585+419.047+45.3085+311.1+45.1261+203.154C45.1158+197.104+45.1261+195.171+45.1261+195.171C45.1261+195.171+64.5239+184.862+70.5227+181.45C80.2811+175.9+90.1784+170.589+99.8573+164.905C111.396+158.129+122.693+150.94+134.24+144.177C140.415+140.561+146.956+137.576+153.225+134.113C164.755+127.743+176.257+121.318+187.678+114.757C202.375+106.315+216.955+97.6709+231.634+89.1982C243.699+82.234+255.869+75.45+267.928+68.4752C274.952+64.4125+281.755+59.9626+288.83+55.9935C296.638+51.6126+304.741+47.7538+312.532+43.3436C318.431+40.0045+323.96+36.0175+329.805+32.576C335.34+29.3171+341.129+26.4924+346.703+23.2968C353.867+19.1903+375.969+8.59449+375.969+8.59449C375.969+8.59449+414.819+25.7168+429.033+33.7421C439.982+39.9242+451.011+45.9678+461.895+52.2619C468.023+55.8055+473.802+59.9582+479.964+63.4348C490.374+69.3072+501.016+74.7673+511.451+80.5961C515.405+82.8046+518.966+85.7076+522.866+88.0231C530.339+92.4591+537.903+96.7439+545.479+101.004C548.726+102.83+552.369+104.073+555.316+106.272C557.27+107.729+559.481+110.381+559.539+112.553C559.722+119.34+559.981+126.453+558.148+132.847C556.977+136.932+552.242+140.054+548.949+143.456C544.158+148.406+539.267+153.263+534.341+158.079C530.264+162.064+525.847+165.724+521.991+169.905C517.172+175.129+512.742+180.713+508.237+186.219C507.727+186.842+507.627+187.966+507.662+188.845C507.929+195.686+508.519+202.524+508.526+209.364C508.533+215.826+509.013+222.593+507.277+228.65C506.017+233.045+501.689+236.693+498.343+240.317C495.36+243.548+491.729+246.17+488.589+249.269C478.973+258.764+469.503+268.405+459.868+277.88C457.473+280.235+456.375+282.735+456.41+286.146C456.556+300.356+456.332+314.571+456.542+328.78C456.622+334.17+454.627+338.332+450.912+341.922C441.512+351.005+432.008+359.984+422.739+369.2C416.343+375.559+400.804+390.471+400.804+390.471L402.391+438.219C402.391+438.219+421.945+462.992+428.239+469.265C435.807+476.808+443.851+483.882+451.231+491.598C453.702+494.182+454.703+496.332+456.41+500.13Z" fill-rule="evenodd" fill="#ff6d1b" opacity="1"/>
    <path d="M1169.6+438.815C1172.33+443.54+1174.79+448.022+1177.28+452.487C1182.8+462.37+1188.39+472.211+1193.84+482.129C1198.53+490.673+1203.13+499.268+1207.66+507.902C1210.64+513.593+1211.59+514.83+1211.59+514.83L1177.75+514.83C1177.75+514.83+1161.62+483.602+1155.82+472.519C1147.44+456.481+1101.31+367.771+1097.84+360.546C1094.57+353.732+1090.41+346.885+1086.95+340.16L1085.85+515.679L1060.79+515.528C1060.79+515.528+1060.85+379.755+1060.85+315.26C1060.85+299.205+1060.76+283.148+1060.96+267.094C1060.99+264.924+1060.79+260.946+1060.79+260.946L1071.99+260.946C1071.99+260.946+1075.93+268.743+1077.74+272.033C1081.92+279.611+1085.73+287.394+1089.88+294.992C1095.3+304.926+1100.87+314.776+1106.43+324.634C1113.21+336.662+1120.2+348.577+1126.81+360.696C1134+373.861+1140.74+387.266+1147.89+400.448C1152.48+408.907+1157.51+417.13+1162.26+425.501C1164.71+429.808+1167+434.208+1169.6+438.815Z" fill-rule="evenodd" fill="#ff6d1b" opacity="1"/>
    <path d="M1230.85+349.565C1230.85+402.389+1230.9+514.83+1230.9+514.83L1222.3+514.83C1222.3+514.83+1206.05+486.557+1199.42+474.643C1193.09+463.264+1186.61+451.968+1180.37+440.538C1174.74+430.223+1169.44+419.729+1163.82+409.409C1160.55+403.406+1156.88+397.622+1153.5+391.681C1151.05+387.378+1148.82+382.948+1146.4+378.629C1139.95+367.131+1133.36+355.711+1126.99+344.172C1116.43+325.06+1106+305.876+1095.51+286.728C1091.64+279.664+1083.12+260.946+1083.12+260.946L1115.56+260.946C1115.56+260.946+1128.8+286.297+1134.87+297.603C1140.22+307.562+1159.48+344.913+1163.89+353.567C1167.83+361.286+1172.03+368.874+1176.26+376.441C1182.31+387.275+1188.8+397.878+1194.51+408.886C1198.47+416.519+1209.25+435.305+1209.23+433.862C1209+416.502+1208.36+260.44+1208.36+260.44C1208.36+260.44+1208.79+260.565+1214.9+260.565C1218.4+260.565+1221.91+260.703+1225.4+260.529C1229.44+260.328+1230.9+260.946+1230.9+260.946C1230.9+260.946+1230.85+321.402+1230.85+349.565Z" fill-rule="evenodd" fill="#ff6d1b" opacity="1"/>
    <path d="M1323.85+280.565C1323.85+275.009+1323.57+260.946+1323.57+260.946L1353.81+260.946C1353.81+260.946+1352.9+486.56+1354.16+486.56C1394.48+486.56+1490.96+486.56+1490.96+486.56C1490.96+486.56+1490.83+504.183+1490.86+508.848C1490.88+513.121+1490.95+515.83+1490.95+515.83C1490.95+515.83+1323.57+515.829+1323.57+514.83C1323.57+440.678+1323.85+355.217+1323.85+280.565Z" fill-rule="evenodd" fill="#ff6d1b" opacity="1"/>
    <path d="M884.103+447.315C879.616+438.828+875.262+430.648+871.185+422.333C868.701+417.266+865.591+419.684+862.638+421.352C859.913+422.891+857.592+425.255+854.755+426.464C850.217+428.399+848.838+431.753+848.842+436.245C848.865+459.894+848.12+514.83+848.12+514.83L814.853+514.83C814.853+514.83+815.114+449.114+814.908+430.266C814.863+426.078+815.125+421.796+816.015+417.726C816.48+415.6+818.204+413.149+820.07+412.027C832.572+404.514+845.212+397.225+857.923+390.068C863.02+387.197+868.385+384.794+873.672+382.271C877.225+380.575+879.822+381.325+881.895+385.022C890.239+399.905+898.785+414.673+907.267+429.477C914.44+441.996+921.64+454.498+928.802+467.022C933.652+475.501+938.485+483.99+943.276+492.502C946.618+498.439+949.95+504.383+953.143+510.4C954.897+513.703+955.697+515.733+955.697+515.733L919.711+515.733C919.711+515.733+918.004+512.739+914.816+506.399C908.781+494.398+902.537+482.503+896.357+470.576C892.377+462.895+888.356+455.235+884.103+447.315Z" fill-rule="evenodd" fill="#ff6d1b" opacity="1"/>
    <path d="M996.864+515.613C994.43+515.762+965.431+515.613+965.431+515.613C965.431+515.613+954.931+495.012+952.593+490.831C946.992+480.816+941.33+470.835+935.644+460.868C930.413+451.701+925.059+442.605+919.87+433.415C914.462+423.838+909.216+414.17+903.843+404.574C900.129+397.942+896.323+391.361+892.543+384.766C892+383.818+891.475+382.829+890.767+382.01C884.465+374.711+884.701+374.229+890.522+365.497C896.04+357.217+901.975+349.21+907.873+341.19C915.776+330.444+923.896+319.859+931.774+309.095C936.611+302.485+941.146+295.655+945.859+288.952C951.396+281.077+966.564+260.835+966.564+260.835C966.564+260.835+998.413+260.316+999.853+260.835C998.917+261.751+988.698+275.008+984.895+280.34C974.001+295.616+963.346+311.063+952.513+326.383C943.391+339.282+934.118+352.074+924.999+364.975C923.396+367.242+921.743+369.675+920.993+372.284C920.288+374.733+919.569+376.935+921.546+380.175C929.928+393.909+937.202+408.312+945.159+422.313C955.132+439.862+965.507+457.183+975.454+474.747C980.859+484.292+995.614+512.122+996.864+515.613Z" fill-rule="evenodd" fill="#ff6d1b" opacity="1"/>
    <path d="M885.103+315.815C895.853+300.254+923.445+260.835+923.445+260.835C923.445+260.835+954.217+260.142+955.697+260.591C954.761+261.631+943.376+277.037+938.883+283.231C927.097+299.482+915.416+315.81+903.777+332.166C895.731+343.473+888.103+355.092+879.7+366.123C876.776+369.962+872.418+373.044+868.142+375.454C855.617+382.515+814.881+402.728+814.881+402.728C814.881+402.728+814.853+327.929+814.853+292.772C814.853+284.884+814.853+260.835+814.853+260.835L847.686+260.835C847.686+260.835+848.245+364.616+849.074+365.01C850.186+365.539+865.406+345.662+869.859+338.849C874.833+331.239+879.853+323.659+885.103+315.815Z" fill-rule="evenodd" fill="#ff6d1b" opacity="1"/>
    <path d="M1364.85+478.213L1364.85+260.946L1391.86+260.448L1391.89+453.679L1490.96+453.679L1490.94+479.631L1364.85+478.213Z" fill-rule="evenodd" fill="#ff6d1b" opacity="1"/>
    <path d="M1267.85+466.565C1267.85+481+1268.78+514.83+1268.78+514.83L1239.81+514.83C1239.81+514.83+1239.85+504.025+1239.85+502.526C1239.85+424.094+1239.81+260.946+1239.81+260.946L1268.78+260.946C1268.78+260.946+1267.85+370.578+1267.85+389.119C1267.85+402.221+1267.85+415.324+1267.85+428.427C1267.85+440.973+1267.85+453.519+1267.85+466.565Z" fill-rule="evenodd" fill="#ff6d1b" opacity="1"/>
    <path d="M1024.85+260.835L1051.85+260.835L1051.85+515.528C1051.85+515.528+1050.09+515.426+1043.79+515.554C1040.63+515.618+1037.46+515.565+1034.3+515.565C1025.8+515.565+1024.85+515.679+1024.85+515.679L1024.85+260.835Z" fill-rule="evenodd" fill="#ff6d1b" opacity="1"/>
    <path d="M779.853+413.565C779.853+364.416+779.852+260.835+779.852+260.835C779.852+260.835+780.324+260.62+786.26+260.573C790.815+260.536+795.382+260.76+799.924+260.511C804.468+260.261+805.916+260.835+805.916+260.835C805.916+260.835+805.853+393.554+805.853+457.031C805.853+474.191+805.916+514.83+805.916+514.83L779.852+514.83C779.852+514.83+779.853+445.554+779.853+413.565Z" fill-rule="evenodd" fill="#ff6d1b" opacity="1"/>
    <path d="M559.516+527.25C561.394+538.338+555.857+545.447+547.621+551.335C545.794+552.641+544.801+555.056+543.109+556.62C536.872+562.385+530.411+567.911+524.238+573.743C522.401+575.479+521.337+578.007+519.709+580.001C518.992+580.88+517.752+581.332+516.749+581.978C516.284+580.886+515.393+579.78+515.428+578.704C515.574+574.175+516.194+569.658+516.276+565.131C516.427+556.89+516.457+548.64+516.255+540.401C516.168+536.845+517.171+534.137+519.769+531.689C524.421+527.305+528.849+522.683+533.371+518.161C540.051+511.482+546.675+504.746+553.457+498.172C554.794+496.876+556.739+496.207+558.403+495.248C558.854+497.47+559.687+499.691+559.689+501.914C559.697+510.278+559.435+518.644+559.516+527.25Z" fill-rule="evenodd" fill="#ff6d1b" opacity="1"/>
    <path d="M568.203+528.215C568.123+518.379+568.377+508.785+568.393+499.189C568.398+495.951+567.903+492.698+567.452+489.477C566.95+485.891+568.44+483.091+570.821+480.755C582.905+468.9+595.052+457.11+607.209+445.332C607.821+444.739+608.739+444.463+609.515+444.039C609.982+445.13+610.826+446.212+610.854+447.314C610.993+452.77+610.917+458.231+610.917+463.69C610.917+471.025+610.68+478.371+611.021+485.69C611.182+489.174+609.64+491.219+607.411+493.413C598.048+502.63+588.799+511.963+579.509+521.254C576.917+523.846+574.418+526.545+571.653+528.935C571.119+529.396+569.541+528.648+568.203+528.215Z" fill-rule="evenodd" fill="#ff6d1b" opacity="1"/>
    <path d="M677.483+548.735C673.639+544.818+671.038+540.956+671.512+534.793C672.101+527.126+670.572+503.766+670.862+499.88C670.975+498.362+670.795+493.552+670.795+493.552C670.795+493.552+696.586+516.958+706.77+526.812C709.574+529.526+710.946+529.559+710.505+539.62C710.307+544.139+710.123+578.863+710.123+578.863C710.123+578.863+687.051+558.484+677.483+548.735Z" fill-rule="evenodd" fill="#ff6d1b" opacity="1"/>
    <path d="M552.276+350.602C553.426+349.453+554.232+348.393+555.278+347.69C555.978+347.219+557.497+346.809+557.817+347.151C558.698+348.092+559.641+349.431+559.673+350.636C559.835+356.795+559.828+362.964+559.665+369.124C559.515+374.821+559.545+380.588+558.591+386.169C558.15+388.75+555.849+391.247+553.877+393.285C549.802+397.494+545.279+401.266+541.128+405.406C534.706+411.811+528.461+418.393+522.093+424.852C520.926+426.036+519.528+426.993+518.237+428.054C517.598+426.392+516.571+424.771+516.392+423.061C515.866+418.024+515.522+412.955+515.393+407.892C515.231+401.58+515.123+395.247+515.495+388.953C515.606+387.077+517.062+384.95+518.492+383.535C527.1+375.02+535.889+366.688+544.595+358.27C547.114+355.835+549.557+353.322+552.276+350.602Z" fill-rule="evenodd" fill="#ff6d1b" opacity="1"/>
    <path d="M662.078+359.049C662.399+362.609+663.061+365.701+662.927+368.758C662.833+370.905+661.656+373.005+660.962+375.126C659.298+374.327+657.254+373.904+656.032+372.668C648.119+364.673+640.421+356.465+632.565+348.413C630.746+346.55+628.645+344.941+626.567+343.355C621.773+339.699+619.475+334.974+619.567+328.89C619.711+319.421+619.544+309.947+619.671+300.477C619.69+299.08+620.6+297.695+621.098+296.305C622.625+296.882+624.566+297.048+625.612+298.102C632.195+304.742+638.49+311.667+645.063+318.318C648.946+322.246+653.001+326.041+657.268+329.543C664.495+335.475+663.224+343.368+662.738+351.138C662.582+353.618+662.301+356.09+662.078+359.049Z" fill-rule="evenodd" fill="#ff6d1b" opacity="1"/>
    <path d="M573.03+178.299C583.68+167.648+594.045+157.193+604.561+146.892C605.744+145.733+607.782+145.446+609.423+144.755C609.921+146.306+610.818+147.849+610.849+149.41C611+156.905+610.487+164.436+611.031+171.894C611.652+180.403+609.219+186.718+602.546+192.559C592.218+201.601+582.955+211.858+573.167+221.525C572.216+222.463+570.744+222.874+569.514+223.53C568.836+222.044+567.568+220.552+567.584+219.073C567.644+213.527+568.232+207.99+568.412+202.442C568.569+197.574+568.709+192.678+568.364+187.829C568.07+183.708+569.946+180.982+573.03+178.299Z" fill-rule="evenodd" fill="#ff6d1b" opacity="1"/>
    <path d="M483.741+418.173C490.547+411.688+497.095+405.426+503.703+399.227C504.405+398.569+506.097+397.739+506.241+397.909C507.192+399.034+508.506+400.419+508.489+401.704C508.38+409.761+506.955+417.929+507.859+425.844C509.314+438.578+501.391+445.371+493.527+452.719C488.379+457.529+483.634+462.767+478.585+467.686C474.971+471.208+471.164+474.532+467.405+477.902C467.108+478.169+466.165+478.277+466.117+478.176C465.416+476.705+464.29+475.184+464.296+473.678C464.311+469.796+465.024+465.921+465.117+462.035C465.271+455.562+465.293+449.079+465.109+442.608C464.995+438.6+466.443+435.449+469.192+432.715C473.972+427.959+478.731+423.182+483.741+418.173Z" fill-rule="evenodd" fill="#ff6d1b" opacity="1"/>
    <path d="M467.089+281.826C470.802+277.952+474.564+274.612+478.218+271.159C485.396+264.374+492.515+257.527+499.657+250.704C500.122+250.259+500.542+249.766+501.027+249.346C502.659+247.933+507.64+243.263+507.64+243.263C507.64+243.263+507.503+250.05+507.555+252.518C507.747+261.679+507.472+270.85+507.708+280.009C507.805+283.808+506.474+286.492+503.838+289.075C493.984+298.735+484.257+308.526+474.547+318.332C472.576+320.322+471.012+322.721+468.999+324.661C468.319+325.316+466.473+325.653+465.816+325.194C465.144+324.726+465.089+323.103+465.087+321.986C465.073+310.905+465.025+299.823+465.245+288.746C465.288+286.589+466.446+284.454+467.089+281.826Z" fill-rule="evenodd" fill="#ff6d1b" opacity="1"/>
    <path d="M516.059+277.661C516.059+277.661+515.808+239.346+516.485+236.054C517.001+233.549+518.586+230.9+520.45+229.096C530.716+219.163+541.222+209.478+551.626+199.688C553.586+197.844+555.459+195.906+557.371+194.012C557.845+196.87+558.589+199.714+558.741+202.589C559.203+211.29+559.943+220.024+559.585+228.703C559.331+234.842+555.057+239.575+550.867+243.811C545.961+248.772+516.059+277.661+516.059+277.661Z" fill-rule="evenodd" fill="#ff6d1b" opacity="1"/>
    <path d="M663.043+258.659C663.043+262.995+663.307+266.877+662.913+270.69C662.755+272.226+661.156+273.614+660.213+275.069C659.157+274.196+658.049+273.379+657.054+272.441C650.811+266.554+644.457+260.777+638.406+254.698C632.615+248.88+626.947+242.907+621.663+236.633C620.182+234.875+619.745+231.824+619.693+229.349C619.482+219.236+619.562+209.116+619.659+199C619.671+197.72+620.422+196.447+620.831+195.171C621.947+195.818+623.263+196.263+624.149+197.142C635.191+208.09+645.832+219.47+657.29+229.959C664.289+236.368+663.065+243.897+662.831+251.653C662.765+253.824+662.965+256.002+663.043+258.659Z" fill-rule="evenodd" fill="#ff6d1b" opacity="1"/>
    <path d="M455.747+386.318C449.135+393.156+411.013+430.405+411.013+430.405C411.013+430.405+409.646+410.886+410.412+403.093C410.96+397.515+411.687+391.762+416.972+387.047C428.803+376.493+456.41+348.827+456.41+348.827C456.41+348.827+456.149+375.966+455.747+386.318Z" fill-rule="evenodd" fill="#ff6d1b" opacity="1"/>
    <path d="M611.883+582.996C610.815+587.93+607.509+590.437+604.21+593.288C598.639+598.104+593.609+603.557+588.47+608.857C583.302+614.186+578.341+619.718+573.141+625.015C572.054+626.122+570.318+626.59+568.881+627.352C568.414+625.941+567.519+624.519+567.552+623.12C567.711+616.508+568.176+609.904+568.394+603.293C568.431+602.154+567.667+601.012+567.502+599.839C566.603+593.464+568.544+588.557+573.505+583.962C584.331+573.936+594.48+563.181+604.99+552.808C606.023+551.789+608.245+550.417+608.863+550.821C610.85+552.118+611.853+553.778+611.639+556.96C611.069+565.434+611.718+573.99+611.883+582.996Z" fill-rule="evenodd" fill="#ff6d1b" opacity="1"/>
    <path d="M663.027+176.271C664.279+177.506+664.141+214.122+664.116+214.881C664.058+216.631+662.197+219.001+661.866+220.741C660.428+220.127+658.647+219.863+657.605+218.844C648.895+210.326+640.321+201.669+631.706+193.054C628.772+190.12+625.488+187.448+623.023+184.162C621.303+181.869+619.877+178.766+619.774+175.971C619.549+169.858+619.731+144.755+619.731+144.755C619.731+144.755+659.502+172.791+663.027+176.271Z" fill-rule="evenodd" fill="#ff6d1b" opacity="1"/>
    <path d="M516.059+328.159C516.059+328.159+516.19+311.829+516.307+305.111C516.374+301.196+515.992+297.241+516.438+293.377C516.719+290.949+517.566+288.088+519.181+286.397C527.939+277.231+537.015+268.369+545.982+259.402C548.693+256.691+551.355+253.929+554.141+251.299C555.089+250.405+559.513+245.933+559.513+245.933C559.513+245.933+560.036+276.538+559.513+280.637C559.024+284.475+557.139+288.393+553.507+291.682C543.644+300.616+516.059+328.159+516.059+328.159Z" fill-rule="evenodd" fill="#ff6d1b" opacity="1"/>
    <path d="M680.659+396.454C677.911+392.282+671.86+391.198+671.631+385.474C671.359+378.666+671.166+371.853+671.076+365.04C671.03+361.485+671.295+357.927+671.382+354.369C671.398+353.709+670.996+352.956+671.201+352.398C671.935+350.397+672.848+348.461+673.693+346.5C675.195+347.852+676.733+349.167+678.194+350.562C685.917+357.937+693.621+365.332+701.33+372.721C705.598+376.812+709.838+381.204+710.064+387.381C710.337+394.818+709.581+402.288+709.419+409.747C709.373+411.896+710.031+414.058+710.014+416.211C709.998+418.275+709.525+420.336+709.253+422.399C707.587+421.615+705.562+421.201+704.313+419.988C696.413+412.322+688.685+404.479+680.659+396.454Z" fill-rule="evenodd" fill="#ff6d1b" opacity="1"/>
    <path d="M498.703+306.682C500.081+304.982+508.47+296.305+508.47+296.305C508.47+296.305+508.482+302.863+508.47+304.199C508.393+313.074+509.201+320.923+508.52+329.767C508.315+332.443+506.095+336.62+504.287+338.545C493.254+350.297+465.073+378.189+465.073+378.189C465.073+378.189+464.941+353.902+465.284+345.554C465.395+342.841+466.267+339.556+468.005+337.624C473.786+331.197+480.118+325.266+486.239+319.145C490.313+315.071+494.387+310.997+498.703+306.682Z" fill-rule="evenodd" fill="#ff6d1b" opacity="1"/>
    <path d="M692.725+265.657C697.588+270.198+702.594+274.169+706.671+278.934C708.753+281.367+710.027+285.187+710.163+288.443C710.439+295.091+709.542+301.78+709.442+308.457C709.391+311.854+710.178+315.258+710.258+318.667C710.286+319.889+709.351+321.134+708.856+322.368C707.534+321.677+705.956+321.25+704.933+320.253C698.391+313.877+691.972+307.376+685.512+300.917C681.894+297.299+678.459+293.471+674.612+290.117C669.984+286.082+671.784+280.452+671.061+275.716C669.94+268.383+670.664+260.75+670.831+253.249C670.877+251.187+671.721+249.142+672.199+247.09C674.3+248.216+676.795+248.942+678.429+250.545C683.296+255.317+687.824+260.434+692.725+265.657Z" fill-rule="evenodd" fill="#ff6d1b" opacity="1"/>
    <path d="M673.661+194.95C677.765+198.167+681.536+201.234+684.979+204.633C693.078+212.626+701.129+220.676+708.914+228.972C710.151+230.29+710.252+232.998+710.282+235.072C710.419+244.447+710.417+253.826+710.273+263.2C710.247+264.911+709.326+266.608+708.818+268.312C707.16+267.271+705.252+266.486+703.884+265.149C696.317+257.756+688.476+250.581+681.542+242.623C676.966+237.372+670.642+232.961+671.539+224.072C672.417+215.372+671.687+206.513+671.794+197.726C671.805+196.795+672.696+195.875+673.661+194.95Z" fill-rule="evenodd" fill="#ff6d1b" opacity="1"/>
    <path d="M656.527+583.719C665.263+589.491+663.234+597.646+661.981+605.505C661.815+606.541+660.482+607.603+659.438+608.246C656.646+609.966+653.848+611.841+650.79+612.896C649.226+613.435+646.504+612.989+645.328+611.892C638.897+605.892+633.415+598.685+626.385+593.572C619.205+588.349+619.499+581.783+619.589+574.626C619.667+568.367+619.51+562.104+619.671+555.848C619.711+554.27+620.566+552.713+621.047+551.147C622.692+551.822+624.638+552.146+625.92+553.245C628.838+555.743+631.429+558.622+634.153+561.346C641.531+568.723+648.908+576.101+656.527+583.719Z" fill-rule="evenodd" fill="#ff6d1b" opacity="1"/>
    <path d="M532.005+507.944C528.127+512.145+524.472+516.088+520.86+520.069C519.059+522.053+516.255+521.631+515.654+519.004C515.207+517.055+515.486+514.936+515.477+512.893C515.46+509.109+515.5+505.325+515.459+501.542C515.386+494.8+514.738+488.51+521.469+483.306C528.436+477.92+533.88+470.579+540.082+464.182C544.986+459.126+549.989+454.162+555.053+449.267C555.848+448.498+557.442+447.711+558.235+448.024C559.025+448.336+559.714+450.035+559.683+451.104C559.516+456.923+558.992+462.731+558.841+468.55C558.763+471.576+560.251+475.071+559.174+477.547C557.273+481.921+554.411+486.109+551.124+489.596C545.151+495.933+538.572+501.699+532.005+507.944Z" fill-rule="evenodd" fill="#ff6d1b" opacity="1"/>
    <path d="M558.792+412.14C558.792+419.266+558.891+425.912+558.71+432.551C558.672+433.924+557.919+435.604+556.934+436.571C551.385+442.027+545.531+447.175+540.037+452.684C533.769+458.97+527.819+465.573+521.611+471.921C520.378+473.181+518.603+473.91+517.078+474.883C516.503+473.247+515.429+471.604+515.448+469.975C515.504+465.229+516.099+460.493+516.287+455.745C516.443+451.839+516.173+447.914+516.397+444.015C516.477+442.614+517.097+440.91+518.069+439.95C522.805+435.273+527.852+430.91+532.575+426.22C536.271+422.551+539.592+418.507+543.195+414.74C546.73+411.045+550.336+407.41+554.071+403.92C555.225+402.843+556.904+402.327+558.342+401.554C558.814+403.127+559.616+404.688+559.669+406.275C559.729+408.057+559.113+409.862+558.792+412.14Z" fill-rule="evenodd" fill="#ff6d1b" opacity="1"/>
    <path d="M619.605+410.209C619.605+406.674+619.553+403.621+619.62+400.571C619.683+397.703+620.951+396.877+623.397+398.639C624.529+399.454+625.634+400.338+626.621+401.321C636.748+411.41+646.451+421.972+657.101+431.474C663.922+437.56+662.958+444.793+663.004+452.231C663.026+455.73+663.056+459.233+662.917+462.727C662.852+464.362+662.455+465.995+662.101+467.605C661.412+470.732+660.106+470.561+658.061+468.499C646.677+457.02+635.297+445.533+623.736+434.234C620.687+431.254+619.437+427.99+619.573+423.865C619.716+419.478+619.605+415.083+619.605+410.209Z" fill-rule="evenodd" fill="#ff6d1b" opacity="1"/>
    <path d="M577.856+381.009C584.313+374.874+590.613+369.068+596.7+363.045C599.11+360.66+600.825+357.565+603.269+355.225C604.997+353.57+607.496+351.589+609.504+351.738C610.962+351.847+611.632+354.806+611.321+357.726C610.62+364.309+611.764+371.069+611.811+377.759C611.834+381.167+610.705+384.205+607.934+386.779C601.948+392.337+596.337+398.297+590.51+404.027C589.314+405.203+587.681+405.942+586.525+407.147C582.133+411.722+577.93+416.479+573.474+420.988C572.511+421.963+570.654+422.81+569.463+422.551C568.587+422.36+567.593+420.28+567.566+419.022C567.396+410.985+567.303+402.936+567.6+394.906C567.676+392.828+568.858+390.506+570.195+388.823C572.382+386.071+575.113+383.752+577.856+381.009Z" fill-rule="evenodd" fill="#ff6d1b" opacity="1"/>
    <path d="M591.37+520.01C596.038+515.342+600.377+510.82+604.957+506.558C606.054+505.536+607.955+505.379+609.486+504.824C609.963+506.232+610.827+507.632+610.853+509.048C610.99+516.591+611.07+524.142+610.813+531.678C610.747+533.636+609.866+535.964+608.568+537.412C602.755+543.894+596.716+550.178+590.642+556.419C584.841+562.381+578.91+568.218+572.994+574.067C572.135+574.915+571.038+575.521+570.051+576.239C569.194+575.019+567.621+573.816+567.593+572.578C567.384+563.272+567.413+553.958+567.576+544.65C567.593+543.657+568.838+542.582+569.692+541.722C576.814+534.542+583.978+527.403+591.37+520.01Z" fill-rule="evenodd" fill="#ff6d1b" opacity="1"/>
    <path d="M559.883+319.429C560.182+331.044+554.068+338.333+546.423+345.164C537.66+352.992+529.967+362.016+521.748+370.461C520.592+371.65+519.089+372.5+517.746+373.507C517.27+371.939+516.485+370.392+516.373+368.798C515.921+362.36+515.862+355.892+515.3+349.466C514.771+343.427+516.233+338.699+520.984+334.394C531.375+324.976+559.883+296.305+559.883+296.305C559.883+296.305+559.83+317.372+559.883+319.429Z" fill-rule="evenodd" fill="#ff6d1b" opacity="1"/>
    <path d="M492.911+499.739C485.772+506.556+478.873+513.13+471.98+519.71C471.166+520.487+470.442+521.367+469.576+522.079C468.302+523.127+466.398+525.524+465.073+526.509C464.694+524.654+465.023+506.275+465.023+506.275C465.023+506.275+464.103+491.783+470.741+485.974C478.348+479.316+485.121+471.713+492.356+464.622C495.851+461.197+499.531+457.957+503.228+454.748C503.961+454.112+505.591+453.429+506.035+453.77C506.866+454.41+507.55+455.779+507.565+456.854C507.684+465.376+507.861+473.909+507.481+482.415C507.377+484.74+505.898+487.403+504.257+489.177C500.835+492.877+496.885+496.087+492.911+499.739Z" fill-rule="evenodd" fill="#ff6d1b" opacity="1"/>
    <path d="M486.636+368.943C492.211+363.369+497.476+357.965+502.939+352.769C503.911+351.845+506.044+351.069+507.023+351.532C507.964+351.977+508.552+354.127+508.519+355.51C508.379+361.478+507.149+367.534+507.833+373.381C508.711+380.895+505.462+385.999+500.574+390.691C496.03+395.053+491.286+399.21+486.769+403.6C481.017+409.191+475.446+414.97+469.696+420.564C468.474+421.753+466.819+422.496+465.363+423.444C465.295+421.653+465.173+419.862+465.168+418.07C465.146+410.689+465.455+403.292+465.055+395.932C464.788+391.024+466.531+387.592+470.074+384.455C475.651+379.519+480.968+374.289+486.636+368.943Z" fill-rule="evenodd" fill="#ff6d1b" opacity="1"/>
    <path d="M609.527+280.636C608.118+283.519+568.391+322.368+568.391+322.368C568.391+322.368+568.264+309.223+568.407+305.494C568.569+301.269+568.425+297.033+568.451+292.802C568.473+289.088+570.321+286.657+573.127+284.144C578.165+279.632+591.587+265.912+593.536+263.91C597.842+259.487+601.922+254.844+606.223+250.416C606.983+249.634+608.397+249.082+609.454+249.161C610.004+249.202+610.805+250.832+610.858+251.78C611.286+259.351+611.834+274.51+611.834+274.51C611.834+274.51+610.937+277.752+609.527+280.636Z" fill-rule="evenodd" fill="#ff6d1b" opacity="1"/>
    <path d="M558.792+169.852C562.005+180.639+553.771+184.959+548.151+190.614C539.194+199.626+530.212+208.614+521.172+217.543C520.179+218.523+518.741+219.052+517.509+219.79C516.791+218.157+515.442+216.518+515.46+214.893C515.551+206.661+515.827+198.419+516.446+190.211C516.59+188.31+517.969+186.167+519.394+184.755C527.554+176.67+535.97+168.844+544.151+160.78C547.863+157.121+551.2+153.084+554.79+149.298C555.467+148.585+556.54+148.248+557.431+147.738C557.884+148.836+558.707+149.927+558.73+151.035C558.859+157.145+558.792+163.258+558.792+169.852Z" fill-rule="evenodd" fill="#ff6d1b" opacity="1"/>
    <path d="M627.086+542.695C620.927+538.173+619.042+532.306+619.533+525.195C619.898+519.916+619.414+514.58+619.71+509.293C619.811+507.482+621.131+505.74+621.894+503.966C623.125+504.792+624.542+505.436+625.558+506.473C636.608+517.755+647.529+529.164+658.627+540.4C665.091+546.944+662.793+554.908+662.742+562.563C662.724+565.233+663.186+567.927+662.95+570.567C662.806+572.178+661.751+573.707+661.106+575.273C659.734+574.382+658.169+573.69+657.024+572.568C650.479+566.157+644.035+559.644+637.556+553.165C634.147+549.755+630.737+546.346+627.086+542.695Z" fill-rule="evenodd" fill="#ff6d1b" opacity="1"/>
    <path d="M701.896+475.607C703.499+477.21+704.876+478.558+706.22+479.937C709.329+483.127+711.14+486.469+710.515+491.415C709.777+497.26+710.342+503.271+710.342+509.209C710.342+510.333+710.523+511.492+710.309+512.573C709.605+516.132+707.534+516.873+704.956+514.308C702.179+511.544+699.813+508.37+697.066+505.572C689.889+498.263+682.676+490.985+675.326+483.85C671.447+480.084+671.344+475.5+671.586+470.66C671.748+467.418+671.706+464.165+671.726+460.917C671.746+457.653+671.543+454.373+671.798+451.129C671.961+449.05+673.048+447.851+675.188+449.768C676.206+450.68+677.517+451.277+678.481+452.233C686.234+459.915+693.937+467.648+701.896+475.607Z" fill-rule="evenodd" fill="#ff6d1b" opacity="1"/>
    <path d="M675.35+402.728C684.676+412.054+693.522+421.394+702.935+430.124C708.447+435.236+711.002+440.851+710.425+448.32C710.002+453.802+710.469+459.348+710.261+464.854C710.202+466.396+709.157+467.9+708.565+469.421C707.429+468.709+706.114+468.179+705.186+467.259C694.074+456.233+682.879+445.283+672.113+433.926C670.603+432.333+671.164+428.68+670.964+425.966C670.781+423.482+670.747+420.972+670.858+418.482C671.069+413.749+671.292+409.005+671.875+404.31C671.966+403.58+673.983+403.088+675.35+402.728Z" fill-rule="evenodd" fill="#ff6d1b" opacity="1"/>
    <path d="M690.795+316.817C695.22+321.243+699.036+325.901+703.672+329.503C711.271+335.408+710.386+343.42+710.346+351.396C710.325+355.468+710.471+359.546+710.271+363.608C710.202+365.005+709.313+366.361+708.799+367.736C707.597+367.146+706.137+366.818+705.233+365.926C695.286+356.106+685.431+346.192+675.537+336.318C672.895+333.682+671.461+330.784+671.637+326.801C671.964+319.425+671.677+312.023+671.787+304.633C671.804+303.518+672.462+301.564+673.03+301.485C674.156+301.327+675.729+301.893+676.588+302.713C681.331+307.242+685.915+311.938+690.795+316.817Z" fill-rule="evenodd" fill="#ff6d1b" opacity="1"/>
    <path d="M456.41+397.887C456.41+397.887+456.346+405.865+456.4+407.575C456.585+413.404+456.41+433.862+456.41+433.862C456.41+433.862+439.825+450.543+435.827+454.492C431.659+458.608+429.128+458.575+424.885+454.391C422.256+451.799+419.539+449.28+417.08+446.532C414.372+443.504+413.7+440.363+417.285+437.295C420.632+434.43+456.41+397.887+456.41+397.887Z" fill-rule="evenodd" fill="#ff6d1b" opacity="1"/>
    <path d="M506.666+531.835C499.88+539.104+493.199+546.002+486.171+552.528C485.327+553.312+482.004+552.72+480.863+551.657C476.949+548.011+473.218+544.078+470.041+539.792C469.128+538.559+469.544+535.062+470.68+533.806C476.035+527.886+481.851+522.383+487.503+516.731C492.587+511.647+497.635+506.524+502.794+501.517C503.598+500.737+504.916+500.111+505.983+500.13C506.547+500.141+507.549+501.689+507.56+502.553C507.676+511.644+507.647+520.736+507.59+529.827C507.587+530.338+506.988+530.844+506.666+531.835Z" fill-rule="evenodd" fill="#ff6d1b" opacity="1"/>
    <path d="M539.245+571.171C544.35+566.065+549.186+561.171+554.104+556.362C555.044+555.443+556.312+554.86+557.428+554.121C558.205+555.728+559.638+557.334+559.637+558.94C559.633+564.268+558.981+569.593+558.854+574.926C558.801+577.193+559.901+579.533+559.633+581.737C559.335+584.186+558.671+587.045+557.12+588.799C552.551+593.962+547.504+598.708+542.567+603.537C538.879+607.144+537.116+607.074+533.279+603.318C529.835+599.948+526.563+596.395+523.01+593.146C520.725+591.056+520.62+589.582+522.944+587.38C528.421+582.188+533.665+576.75+539.245+571.171Z" fill-rule="evenodd" fill="#ff6d1b" opacity="1"/>
    <path d="M610.917+629.329C611.976+635.041+607.72+637.437+604.675+639.631C599.001+643.721+592.62+646.83+586.525+650.333C585.753+650.777+584.962+651.383+584.127+651.486C581.291+651.835+570.483+640.294+571.487+637.651C572.154+635.895+574.216+634.664+575.666+633.211C580.296+628.574+584.932+623.942+589.566+619.309C594.901+613.974+600.169+608.569+605.626+603.363C606.736+602.304+608.558+601.992+610.052+601.336C610.662+602.935+611.815+604.542+611.79+606.131C611.675+613.705+611.239+621.275+610.917+629.329Z" fill-rule="evenodd" fill="#ff6d1b" opacity="1"/>
    <path d="M590.405+149.34C584.969+155.098+579.852+160.692+574.512+166.065C573.46+167.123+571.065+168.21+570.145+167.709C568.84+167.001+567.667+164.861+567.596+163.28C567.313+156.985+567.612+150.667+567.438+144.364C567.293+139.1+568.652+134.623+572.824+131.172C574.054+130.154+575.107+128.922+576.241+127.788C581.663+122.366+581.634+122.416+588.359+126.394C591.82+128.441+595.484+130.148+598.916+132.238C603.188+134.839+603.319+136.22+599.814+139.9C596.829+143.034+593.707+146.037+590.405+149.34Z" fill-rule="evenodd" fill="#ff6d1b" opacity="1"/>
    <path d="M681.383+594.579C677.871+592.193+674.732+589.928+671.893+587.333C671.219+586.717+671.489+585.002+671.433+583.787C671.267+580.233+670.986+576.672+671.067+573.121C671.173+568.483+671.527+563.846+671.986+559.23C672.015+558.935+674.36+558.295+674.795+558.703C681.257+564.767+688.151+570.507+693.772+577.293C699.479+584.182+698.992+584.767+691.423+589.751C688.461+591.701+685.064+592.989+681.383+594.579Z" fill-rule="evenodd" fill="#ff6d1b" opacity="1"/>
    <path d="M710.638+199.675C710.638+199.675+710.229+208.326+710.278+212.018C710.296+213.301+710.258+220.741+710.258+220.741C710.258+220.741+680.174+194.208+676.275+190.921C671.622+187+671.622+179.56+671.622+179.56L710.638+199.675Z" fill-rule="evenodd" fill="#ff6d1b" opacity="1"/>
    <path d="M456.497+484.632C456.497+484.632+444.184+473.826+441.121+470.598C438.012+467.321+438.483+462.543+442.157+458.799C444.602+456.308+456.41+445.619+456.41+445.619C456.41+445.619+456.307+452.469+456.367+454.258C456.616+461.609+456.497+484.632+456.497+484.632Z" fill-rule="evenodd" fill="#ff6d1b" opacity="1"/>
    <path d="M627.569+626.675C626.44+627.481+625.547+628.037+624.667+628.614C621.66+630.587+619.592+629.634+619.662+625.992C619.757+620.996+620.389+616.011+620.507+611.014C620.56+608.754+619.763+606.483+619.685+604.206C619.654+603.29+620.305+601.89+621.038+601.544C621.73+601.218+623.182+601.707+623.879+602.318C627.907+605.847+631.963+609.366+635.711+613.183C639.525+617.069+638.809+620.556+634.095+623.048C631.992+624.16+629.905+625.304+627.569+626.675Z" fill-rule="evenodd" fill="#ff6d1b" opacity="1"/>
    <path d="M493.876+556.691C497.177+553.069+500.195+549.647+503.336+546.343C503.889+545.761+505.152+545.21+505.738+545.461C506.544+545.806+507.539+546.92+507.551+547.719C507.681+556.107+507.802+564.503+507.532+572.884C507.446+575.533+505.314+576.415+503.357+574.285C499.678+570.282+496.107+566.146+492.913+561.759C492.231+560.822+493.347+558.576+493.876+556.691Z" fill-rule="evenodd" fill="#ff6d1b" opacity="1"/>
    <path d="M546.243+612.919C549.85+608.508+553.429+604.55+557.158+600.741C557.329+600.566+559.583+601.672+559.625+602.269C559.763+604.24+559.158+606.252+559.155+608.248C559.149+612.44+559.429+616.632+559.416+620.824C559.411+622.562+558.956+624.299+558.706+626.037C557.157+625.396+555.121+625.171+554.151+624.035C551.289+620.684+548.848+616.973+546.243+612.919Z" fill-rule="evenodd" fill="#ff6d1b" opacity="1"/>
    <path d="M571.099+122.312C569.732+121.472+568.103+120.558+567.667+119.247C567.405+118.459+568.788+116.492+569.829+116.095C570.725+115.754+572.182+116.885+573.392+117.365C572.708+118.933+572.024+120.502+571.099+122.312Z" fill-rule="evenodd" fill="#ff6d1b" opacity="1"/>
</g>
</svg>
